<svg width="23" height="17" viewBox="0 0 23 17" fill="none" xmlns="http://www.w3.org/2000/svg">
<path d="M20.7 0H2.3C1.035 0 0 0.95625 0 2.125V14.875C0 16.0438 1.035 17 2.3 17H20.7C21.965 17 23 16.0438 23 14.875V2.125C23 0.95625 21.965 0 20.7 0ZM20.24 4.51562L12.719 8.86125C11.9715 9.29688 11.0285 9.29688 10.281 8.86125L2.76 4.51562C2.64469 4.45582 2.54371 4.37502 2.46317 4.27811C2.38264 4.1812 2.32422 4.0702 2.29146 3.95183C2.2587 3.83346 2.25228 3.71018 2.27258 3.58945C2.29288 3.46872 2.33949 3.35305 2.40957 3.24944C2.47966 3.14584 2.57177 3.05645 2.68034 2.98668C2.7889 2.91692 2.91165 2.86823 3.04117 2.84357C3.17069 2.8189 3.30428 2.81878 3.43385 2.84319C3.56342 2.86761 3.68628 2.91607 3.795 2.98563L11.5 7.4375L19.205 2.98563C19.3137 2.91607 19.4366 2.86761 19.5662 2.84319C19.6957 2.81878 19.8293 2.8189 19.9588 2.84357C20.0883 2.86823 20.2111 2.91692 20.3197 2.98668C20.4282 3.05645 20.5203 3.14584 20.5904 3.24944C20.6605 3.35305 20.7071 3.46872 20.7274 3.58945C20.7477 3.71018 20.7413 3.83346 20.7085 3.95183C20.6758 4.0702 20.6174 4.1812 20.5368 4.27811C20.4563 4.37502 20.3553 4.45582 20.24 4.51562Z" fill="black"/>
</svg>
