<svg width="23" height="23" viewBox="0 0 23 23" fill="none" xmlns="http://www.w3.org/2000/svg">
<path d="M11.5 0C7.04945 0 3.44995 3.5995 3.44995 8.05C3.44995 14.0875 11.5 23 11.5 23C11.5 23 19.55 14.0875 19.55 8.05C19.55 3.5995 15.9505 0 11.5 0ZM11.5 10.925C10.7375 10.925 10.0062 10.6221 9.46702 10.0829C8.92785 9.54377 8.62495 8.8125 8.62495 8.05C8.62495 7.2875 8.92785 6.55623 9.46702 6.01707C10.0062 5.4779 10.7375 5.175 11.5 5.175C12.2624 5.175 12.9937 5.4779 13.5329 6.01707C14.0721 6.55623 14.375 7.2875 14.375 8.05C14.375 8.8125 14.0721 9.54377 13.5329 10.0829C12.9937 10.6221 12.2624 10.925 11.5 10.925Z" fill="black"/>
</svg>
