<svg width="23" height="23" viewBox="0 0 23 23" fill="none" xmlns="http://www.w3.org/2000/svg">
<path d="M21.6583 23C18.9111 23 16.2333 22.3875 13.6249 21.1626C11.0166 19.9376 8.70593 18.3191 6.693 16.307C4.68007 14.2949 3.06156 11.9843 1.83744 9.37506C0.613334 6.76583 0.000851852 4.08804 0 1.34167C0 0.958334 0.127778 0.638889 0.383333 0.383333C0.638889 0.127778 0.958334 0 1.34167 0H6.51667C6.81482 0 7.08102 0.0958332 7.31528 0.2875C7.54954 0.479167 7.68796 0.724074 7.73056 1.02222L8.56111 5.49444C8.6037 5.79259 8.59817 6.06433 8.5445 6.30967C8.49083 6.555 8.36859 6.77307 8.17778 6.96389L5.11111 10.0944C6.00556 11.6278 7.12361 13.0653 8.46528 14.4069C9.80694 15.7486 11.287 16.9093 12.9056 17.8889L15.9083 14.8861C16.1 14.6944 16.3504 14.5509 16.6597 14.4555C16.9689 14.3601 17.2721 14.3333 17.5694 14.375L21.9778 15.2694C22.2759 15.3333 22.5208 15.4773 22.7125 15.7013C22.9042 15.9254 23 16.186 23 16.4833V21.6583C23 22.0417 22.8722 22.3611 22.6167 22.6167C22.3611 22.8722 22.0417 23 21.6583 23Z" fill="black"/>
</svg>
